<?xml version="1.0" encoding="UTF-8"?>
<svg id="Layer_2" data-name="Layer 2" xmlns="http://www.w3.org/2000/svg" viewBox="0 0 211.07 34.05">
  <defs>
    <style>
      .cls-1 {
        fill: #f8991d;
      }

      .cls-2 {
        fill: #ffe35a;
      }

      .cls-3 {
        fill: #824c9e;
      }

      .cls-4 {
        fill: #b3a241;
      }

      .cls-5 {
        fill: #fff5e9;
        stroke: #231f20;
        stroke-miterlimit: 10;
      }

      .cls-6 {
        fill: #231f20;
        font-family: FuzzyBubbles-Bold, 'Fuzzy Bubbles';
        font-size: 26px;
      }
    </style>
  </defs>
  <g id="Logo">
    <g>
      <text class="cls-6" transform="translate(0 24.66)"><tspan x="0" y="0" xml:space="preserve">TR   SH QUEENS</tspan></text>
      <g id="_Group_recycle_symbol" data-name="&amp;lt;Group&amp;gt;recycle symbol">
        <g id="_Group_recycle_arrow" data-name="&amp;lt;Group&amp;gt;recycle arrow">
          <path class="cls-5" d="M42.34,7.96s2.88-5.35,4.91-5.12,7.91,0,7.91,0c0,0,1.56,.35,3.12,3.02l2.52-1.23-3.12,5.35h-7.43l2.76-1.23-1.81-2.34-3.16,4.6-5.7-3.04Z"/>
          <path class="cls-5" d="M51.2,6.4s-2.04-3.62-3.95-3.56"/>
        </g>
        <g id="_Group_recycle_arrow-2" data-name="&amp;lt;Group&amp;gt;recycle arrow">
          <path class="cls-5" d="M61.52,9.74s3.36,5.1,2.07,6.59-4.18,6.24-4.18,6.24c0,0-1.14,1.05-4.4,.86l-.21,2.63-3.23-5.29,3.93-5.86-.34,2.82,3.1-.18-2.53-4.93,5.79-2.89Z"/>
          <path class="cls-5" d="M58.26,17.55s4.39,.31,5.34-1.23"/>
        </g>
        <g id="_Group_recycle_arrow-3" data-name="&amp;lt;Group&amp;gt;recycle arrow">
          <path class="cls-5" d="M50.46,24.13s-6.41,.54-7.27-1.19-4.17-6.25-4.17-6.25c0,0-.5-1.41,1.12-4.05l-2.45-1.34,6.53-.35,3.91,5.87-2.57-1.53-1.19,2.66,5.87,.07,.22,6.11Z"/>
          <path class="cls-5" d="M44.37,17.95s-2.24,3.52-1.18,4.99"/>
        </g>
      </g>
    </g>
    <g id="_Group_Crown" data-name="&amp;lt;Group&amp;gt; Crown">
      <polygon class="cls-4" points="151.24 2.05 152.3 .28 153.61 1.47 152.93 2.78 151.24 2.05"/>
      <polygon class="cls-2" points="151.33 7.52 158.89 6.99 159.33 .64 156.18 2.56 154.29 .15 152.93 2.78 149.57 1.32 151.33 7.52"/>
      <polygon class="cls-4" points="156.18 2.56 155.23 1.35 156.37 0 157.85 1.54 156.18 2.56"/>
      <polygon class="cls-1" points="151.07 6.59 158.96 6.03 158.89 6.99 151.33 7.52 151.07 6.59"/>
      <polygon class="cls-3" points="153.88 4.33 154.59 2.97 155.43 4.22 154.74 5.51 153.88 4.33"/>
    </g>
    <g id="_Group_Crown-2" data-name="&amp;lt;Group&amp;gt; Crown">
      <polygon class="cls-4" points="166.09 2.12 167.15 .36 168.46 1.54 167.79 2.86 166.09 2.12"/>
      <polygon class="cls-2" points="166.19 7.59 173.75 7.06 174.18 .71 171.03 2.63 169.14 .22 167.79 2.86 164.42 1.4 166.19 7.59"/>
      <polygon class="cls-4" points="171.03 2.63 170.08 1.42 171.23 .07 172.7 1.61 171.03 2.63"/>
      <polygon class="cls-1" points="165.92 6.66 173.81 6.11 173.75 7.06 166.19 7.59 165.92 6.66"/>
      <polygon class="cls-3" points="168.74 4.4 169.44 3.04 170.29 4.3 169.6 5.58 168.74 4.4"/>
    </g>
  </g>
</svg>